<?xml version="1.0" standalone="no"?>
<!DOCTYPE svg PUBLIC "-//W3C//DTD SVG 20010904//EN"
 "http://www.w3.org/TR/2001/REC-SVG-20010904/DTD/svg10.dtd">
<svg version="1.0" xmlns="http://www.w3.org/2000/svg"
 width="260.000000pt" height="260.000000pt" viewBox="0 0 260.000000 260.000000"
 preserveAspectRatio="xMidYMid meet">
<metadata>
Created by potrace 1.11, written by Peter Selinger 2001-2013
</metadata>
<g transform="translate(0.000000,260.000000) scale(0.100000,-0.100000)"
fill="#000000" stroke="none">
<path d="M1293 2534 c-3 -11 -18 -35 -33 -54 -15 -19 -120 -170 -234 -335
-113 -165 -210 -305 -214 -310 -5 -6 -33 -46 -63 -90 -30 -44 -71 -102 -90
-130 -20 -27 -66 -95 -104 -150 -38 -55 -100 -145 -139 -200 -38 -55 -88 -127
-111 -160 -22 -33 -75 -110 -117 -171 l-77 -111 31 -34 c16 -19 67 -74 113
-124 45 -49 102 -112 126 -139 24 -27 62 -68 84 -91 22 -23 76 -82 120 -130
44 -49 100 -111 125 -138 l46 -49 47 49 c26 26 47 53 47 58 0 6 -16 28 -36 50
-113 123 -207 228 -260 285 -32 36 -72 80 -89 99 -16 18 -43 45 -59 60 -41 38
-53 69 -51 136 1 58 4 64 78 170 42 61 102 148 134 194 32 46 83 119 113 162
30 43 111 160 180 259 69 100 143 207 166 238 43 61 148 213 223 324 25 38 51
68 56 68 6 0 24 -22 41 -48 17 -26 102 -150 190 -277 88 -126 166 -240 174
-251 8 -12 60 -86 115 -165 55 -79 111 -160 125 -180 52 -76 160 -232 239
-344 56 -79 111 -163 111 -169 0 -3 -12 -18 -26 -33 -14 -15 -58 -64 -97 -107
-40 -43 -83 -91 -97 -106 -14 -15 -65 -71 -115 -125 -49 -54 -103 -113 -120
-130 -48 -52 -80 -89 -88 -101 -3 -6 16 -35 44 -65 l49 -54 37 40 c20 22 79
86 132 143 52 57 102 111 110 121 9 10 57 63 107 117 50 54 109 119 131 144
23 25 59 65 82 90 23 25 41 49 41 54 0 11 -70 113 -488 716 -193 278 -370 533
-394 568 -24 35 -48 69 -53 75 -6 7 -31 44 -57 82 -26 39 -70 104 -99 145 -29
41 -63 90 -76 109 -20 29 -24 31 -30 15z"/>
<path d="M1237 1852 c-129 -189 -177 -257 -189 -275 -7 -10 -129 -185 -271
-389 l-258 -371 28 -30 c40 -42 77 -82 173 -187 47 -51 96 -105 110 -120 14
-15 44 -48 67 -73 22 -26 44 -47 47 -47 6 0 32 25 55 53 12 15 8 24 -40 75
-51 54 -232 252 -254 276 -5 7 -21 24 -34 38 l-23 27 68 98 c38 54 96 137 129
185 33 48 90 131 127 185 38 54 95 136 128 183 33 47 83 120 112 162 49 72 55
77 83 72 54 -9 64 -15 85 -50 12 -19 27 -40 33 -47 21 -22 77 -107 77 -116 0
-5 4 -11 8 -13 5 -1 31 -37 59 -78 29 -41 77 -111 108 -155 30 -44 85 -123
121 -175 36 -52 90 -130 120 -174 l56 -78 -29 -31 c-15 -17 -32 -36 -38 -42
-17 -19 -187 -205 -242 -264 -29 -31 -53 -59 -53 -63 0 -4 13 -22 30 -40 l30
-33 51 55 c29 30 75 80 103 111 28 30 94 102 146 158 121 132 129 144 108 168
-8 10 -55 77 -104 148 -48 72 -92 132 -96 133 -4 2 -8 8 -8 14 0 8 -43 71 -60
88 -3 3 -9 13 -15 22 -5 9 -33 49 -61 90 -28 40 -75 109 -105 153 -30 44 -56
82 -60 85 -3 3 -50 70 -104 150 -54 80 -111 161 -125 182 l-26 36 -67 -96z"/>
</g>
</svg>
